<svg xmlns="http://www.w3.org/2000/svg" viewBox="0 0 100 100">
  <!-- ears -->
  <ellipse cx="20" cy="42" rx="13" ry="9" fill="#3a3a3a" transform="rotate(-25 20 42)"/>
  <ellipse cx="80" cy="42" rx="13" ry="9" fill="#3a3a3a" transform="rotate(25 80 42)"/>
  <!-- horns -->
  <path d="M30 24 q-6 -10 -14 -9 q6 4 8 13 z" fill="#e8d8b0"/>
  <path d="M70 24 q6 -10 14 -9 q-6 4 -8 13 z" fill="#e8d8b0"/>
  <!-- head -->
  <ellipse cx="50" cy="50" rx="32" ry="30" fill="#f5f0e6"/>
  <!-- black spots -->
  <path d="M26 36 q-8 8 -4 20 q10 4 16 -4 q-2 -14 -12 -16 z" fill="#3a3a3a"/>
  <ellipse cx="68" cy="40" rx="9" ry="7" fill="#3a3a3a"/>
  <!-- eyes -->
  <circle cx="38" cy="48" r="4.5" fill="#2a2a2a"/>
  <circle cx="62" cy="48" r="4.5" fill="#2a2a2a"/>
  <circle cx="39.5" cy="46.5" r="1.4" fill="#fff"/>
  <circle cx="63.5" cy="46.5" r="1.4" fill="#fff"/>
  <!-- muzzle -->
  <ellipse cx="50" cy="68" rx="20" ry="14" fill="#f4b6c2"/>
  <ellipse cx="42" cy="68" rx="3" ry="4" fill="#c97c8c"/>
  <ellipse cx="58" cy="68" rx="3" ry="4" fill="#c97c8c"/>
</svg>
